<svg version="1.2" xmlns="http://www.w3.org/2000/svg" viewBox="0 0 974 974" width="974" height="974">
	<title>projeto logo PDVSMart</title>
	<style>
		.s0 { fill: #ffffff } 
		.s1 { fill: #12ec7c } 
		.s2 { fill: #3b6f77 } 
		.s3 { fill: #65bda4 } 
		.s4 { fill: #60b0ac } 
		.s5 { fill: #121f32 } 
		.s6 { fill: #081028 } 
		.s7 { fill: #0f162e } 
		.s8 { fill: #09122a } 
		.s9 { fill: #1e3945 } 
		.s10 { fill: #529b87 } 
		.s11 { fill: #71d69d } 
	</style>
	<path class="s0" d="m582.4 651.7c-15.8 8.3-30.9 18.1-47.5 24.5-56.5 21.9-112.6 44.6-172.1 57.9-48.3 10.8-96.7 18.4-146.3 17.2-26.5-0.7-52.8-3.9-77.7-13.5-8.7-3.4-17.4-7.7-25.1-13-27.1-18.5-38.8-44.6-32.9-77 8.1-44.6 35.4-78.1 67.2-109.1-1.6 6-3.3 12-4.8 18-11.7 47.7 2.7 85.6 43.4 113 22.4 15 47.7 22.8 74 26.6 19.6 2.8 39.6 3 61.2 4.5 47.5-0.8 92-8.9 136.2-23.3 4.7-1.4 8.7-2.5 12.6-4 10.2-3.9 20.3-8 31.2-11.8 2.2-0.7 3.8-1.4 6.1-2.2 12.6-4.9 24.5-9.8 37.1-14.6 34-16.4 67.2-32.8 101.1-49.4 15.9-9.7 31.2-19.1 47.1-28.7 5.2-2.8 9.8-5.2 14-8.2 20.8-15.3 41.5-30.8 62.5-45.7 0.8 1.4 1.3 2.3 1.2 3.8-19.2 17.5-37.8 34.7-56.7 51.5-7.1 6.2-14.8 11.6-22.9 17.6-36.8 22.1-72.8 44-108.9 65.9z"/>
	<path class="s1" d="m645.4 595.6c-33.2 16.5-66.4 32.9-101.3 49.2-33.2-5.8-64.8-11.4-96.8-17.5-2.9-3.9-5.3-7.3-8.5-10.7-5.9 2.1-15.4-5-15.6 6.6-0.2 17.4 0.3 34.8 0 52.5-1.3 1.4-2.2 2.5-3.9 3.6-12.9-3.1-25.1-5.7-37-9.4-3.1-0.9-5.2-5.1-7.5-8.4 0.3-1.5 0.5-2.3 0.7-3.1 0-12.3 0-24.5 0-37.7-52.6 4.1-104.4 8.2-157.6 12.4-2.3-22.5-4.6-44.1-5.9-66.6 8.8-2.4 16.7-4 25-5.4 0.4 0.3 1.2 0.7 1.1 1.5 0.3 2.8 0.6 4.8 0.7 7.6 0.3 3.5 0.9 6.4 1.3 10 0.3 2.8 0.6 4.8 0.7 7.6 0.3 3.5 0.9 6.4 1.4 10 2.2 2.3 4.5 4.8 6.8 4.9 5.4 0.3 10.7-0.6 16.9-0.8 54.1-3.2 107.4-6.6 160.7-9.9 51.3-3.2 102.6-6.2 154.2-8.6 9.7 1.5 19 2.2 28.3 3.1-0.1 0.2-0.4-0.2 0.6 0 10.3 1 19.6 1.5 28.8 3 2.6 0.4 4.6 4 6.9 6.1z"/>
	<path class="s1" d="m400.4 272.3c19.7 4.7 39.5 9.5 59.4 13.9 4.2 1 8.9 1.2 13.1 0.4 65.2-11.7 130.9-23.8 197.4-35.7 5.6-1 11.9-0.7 17.4 0.6 39.6 9.5 79.1 19.7 119.1 29.1 8.1 2 10.5 5.3 10.4 13.6-0.8 43.4-0.9 86.6-2.2 130.8-2.9 0.9-4.8 0.9-6.8 0 0.1-11.2 0.4-21.4 0-31.6-0.2-5.4-1.6-10.8-2.5-17-0.1-25.4-0.3-49.8 0.2-74.2 0.2-7.9-2.2-11.2-9.9-13-32.7-7.7-65.1-16-97.5-23.9-2.4-0.6-5-0.7-9.4-1.2-0.1 30.9-0.2 60.7-1 90.3-9.7-0.8-18.8-1.8-27.8-1.9-20.2-0.4-40.4-0.2-60.4-0.7-3.9-0.1-10.3-1.8-10.9-4.1-3.3-12.2-13.2-11.9-22.1-14.4-0.6-2.2-1-3.7-1.5-6-2.9-3.2-5.4-7.1-8.7-7.9-21.9-5.7-43.9-10.6-65.7-15.8-32.3-7.8-64.4-15.7-95.9-24 2.1-2.7 3.7-5 5.3-7.3z"/>
	<path class="s1" d="m400.9 273.8c-0.9 2.8-2.5 5.2-5.3 8.1-2.6 0.1-4.1-0.3-5.7-1.1-1.4-0.6-2.6-0.7-4.4-0.8-1.6-0.1-2.5-0.4-3.5-1.1-1.4-0.6-2.6-0.7-4.6-0.7-4.8-1-8.9-2-13.1-3.4-1.4-0.6-2.6-0.7-4.5-0.8-19.3-4.3-37.8-8.7-56.5-13.5-1.4-0.5-2.5-0.7-4.5-0.7-32.6-7.3-64.5-14.7-97.6-22.3 0.5 4.2 0.8 7.1 0.9 10.6 0.4 3 0.9 5.4 1.4 8.5 0.4 3.6 0.9 6.4 1.1 9.8 0.3 3 0.8 5.3 1.3 8.5 0.4 3.6 0.9 6.4 1.1 9.8 0.3 3 0.8 5.3 1.3 8.5 0.3 2.9 0.7 5 0.8 7.9 0.4 3.7 1 6.6 1.6 10.4 0.3 2.9 0.7 5 0.8 8-0.2 3-0.1 5.3-0.9 7.5-3.7 2.2-6.6 4.5-9.6 6.5-3.1 2-6.3 3.8-9.8 5.7-0.9-0.2-1.4-0.2-2-0.2-15.2-0.5-30.5-1.7-45.7-1.3-9.2 0.2-12.8-2.2-12.6-12.3 0.4-18.2-0.5-36.5-0.9-56.1 16.6 0 32.4 0 50 0-1.2-10.8-2.3-20-3.4-29.3-1.4-11.5 7.3-20 18.2-17.3 68.5 16.8 136.9 33.8 206.1 51.1z"/>
	<path class="s1" d="m583.1 652c35.4-22.2 71.4-44.1 108.4-65.2 1.2 22.9 1.4 44.9 1.5 67.5 1.6 0.9 3.3 1.2 5.9 1.6 6.1-0.9 11.4-1.9 17.2-2.8 1.5-0.4 2.5-0.8 4.3-1.2 6.1-0.9 11.4-1.9 17.2-2.8 1.6-0.3 2.5-0.7 4.2-1.1 2.2-0.2 3.7-0.5 5.7-0.7 1.5-0.3 2.4-0.8 4.2-1.1 2.8-0.4 4.9-0.8 7.5-1.1 1.5-0.3 2.4-0.7 4.2-1.1 2.1-0.2 3.6-0.5 5.6-0.7 1.5-0.3 2.5-0.7 4.2-1.1 6.2-1 11.5-2 17.3-2.9 1.5-0.3 2.5-0.7 4.3-1.1 9.4 0.5 11.8-3.8 11.5-12-0.5-11.6 0.2-23.4 1.1-35.1 4.3-0.9 8-1.8 11.7-2.7-0.6 14.2-1.3 28.4-1.8 42.6-0.6 14.9 3.3 13.8-14.1 17-36.7 6.9-73.4 13.9-110.2 20.7-5.3 1-11.1 1.8-16.3 0.9-31.1-5.5-62-11.4-93.6-17.6z"/>
	<path class="s1" d="m832.7 454.4c-0.1-10.9 0.5-21-0.3-31.1-0.6-9 2.9-11.3 11.3-10.7 8.1 0.7 16.3-0.4 24.4 0.3 8.4 0.7 10.9-2.8 10.2-10.7-0.5-5.4-0.1-10.9-0.1-16.8 11.7 0 22.2 0 33.2 0 0.2 2.2 0.6 3.7 0.5 5.3-0.1 7.8 2.6 17.9-1.3 22.7-3.4 4.1-14.2 2.7-21.8 2.8-5.7 0.1-7.2 2.5-7.1 7.7 0.2 11 0.1 22.1 0.1 34.4-16.1 0-31.5 0.1-46.9-0.1-0.7 0-1.4-1.9-2.2-3.8z"/>
	<path class="s1" d="m819.9 588.6c-4.5 0.7-8.2 1.6-13.1 2-6.2-0.9-11.1-1.3-16.2-2.5-0.1-15.8 0-30.7 0.9-45.5 5.3-0.1 9.6-0.3 14.8-0.7 1.5-4.2 3-8.1 3-12.1 0.2-36.3 0.1-72.6 0.1-108.8 1.9-0.1 3.8-0.1 6.4-0.2 0.9 27.6 1.1 55.2 1.3 82.8 0.1 7.8 0 15.6 0 23.4 0 14.5 0 14.7 14.8 15.5 4.9 0.2 6.9 1.9 6.8 6.9-0.2 11.4-0.2 22.7-0.9 35.1-1.3 2-2.1 2.9-2.8 3.8-4.7 0.1-9.4 0.3-15.1 0.3z"/>
	<path class="s1" d="m188.4 335.3c3.3-1.9 6.6-3.7 9.9-5.7 3.2-2.1 6.3-4.3 10.5-6.2 1.4 0.8 1.8 1.3 2.2 2.3 0.2 2.3 0.5 3.8 0.5 6 0.3 3 0.8 5.3 1.3 8.5 0.3 3.6 0.7 6.4 0.8 9.9 0.3 3 0.8 5.3 1.3 8.5 0.3 3.6 0.7 6.4 0.8 9.8 0.2 2.3 0.7 4 1.1 6.6 0.4 4.3 0.8 7.7 1 11.8 0.2 2.3 0.7 4 1.1 6.5 0.3 3.7 0.6 6.4 0.8 9.9 0.3 3 0.8 5.4 1.3 8.5 0.3 3.6 0.7 6.4 0.8 9.9 0.3 3 0.8 5.3 1.3 8.5 0.3 3.6 0.7 6.4 0.8 9.9 0.3 3 0.8 5.3 1.2 8.4 0.3 3 0.6 5.1 0.7 8.1-0.6 3-0.8 5.2-1.9 7.5-8.6-0.7-16.5-1.4-24.4-2.1-0.2-0.9-0.4-1.9-0.1-4.1-0.3-5.7-1-10-1.8-14.3-0.2-0.9-0.5-1.9-0.2-4.2-0.3-5.6-1-9.9-1.7-14.2-0.3-1.5-0.6-3.1-0.5-6.1-0.1-5-0.8-8.6-1.4-12.3-0.4-1.5-0.7-3.1-0.6-6 0-4.3-0.6-7.3-1.1-10.3-0.5-2.9-1-5.8-1-10.1-0.1-4.3-0.6-7.3-1.2-10.3-0.5-2.9-0.9-5.8-0.9-10 0-3.7-0.5-6.1-1-8.4-0.5-2.9-1-5.8-1-10 0.8-3.1 1.1-4.7 1.4-6.3z"/>
	<path class="s1" d="m199 456.9c8-0.2 15.8 0.5 24.5 2 2.4 6.4 3.8 11.9 5.1 18.3 0.4 3.6 0.8 6.3 0.9 9.8 0.3 3 0.8 5.3 1.2 8.4 0.3 2.9 0.6 5 0.7 7.9 0.3 3.7 0.9 6.6 1.4 10.4 0.3 2.9 0.6 5 0.7 7.8 0.3 3 0.8 5.3 1.2 8.4 0.3 3.6 0.7 6.4 0.8 9.8 0.3 3 0.8 5.3 1.3 8.4 0.2 3 0.5 5.1 0.6 7.9-0.2 3.4-0.2 6-0.1 8.6-8.2 1.7-16.4 3.4-25.3 5.1-5-37.3-9.1-74.6-13-112.8z"/>
	<path class="s1" d="m79.7 384.9c-19.6-0.3-17.3 2.5-17.5-16.8 0-9.2 0.2-18.3 0-27.4-0.2-5.4 1.6-7.7 7.2-7.6q18.6 0.4 37.2 0c5.6-0.1 7.4 2.2 7.3 7.6-0.2 12-0.2 24.1 0 36.1 0.2 5.9-1.8 8.4-7.8 8.1-8.5-0.3-17 0-26.4 0z"/>
	<path class="s1" d="m165.3 424.4c1.3 9.6-2.5 12.5-11 11.8-8.7-0.7-17.6-0.6-26.3 0-7.6 0.5-9.7-2.6-9.4-9.7 0.5-9.7 0.3-19.5 0.1-29.2-0.1-5.2 1.3-8 7.1-7.8 10.7 0.2 21.4 0.2 32.2 0 5.5-0.1 7.5 2.2 7.3 7.6-0.2 8.8 0 17.6 0 27.3z"/>
	<path class="s1" d="m457.2 677.6c-43.4 14.3-87.9 22.4-134.4 23.1-16.4-5.4-32-10.7-47.5-16 1.8-10.7 8.5-14.5 18.9-14 3.4 1.9 5.9 3.3 9.1 4.9 15.7 4.6 30.6 9.3 45.6 13.6 3.6 1 7.7 1.8 11.4 1.2 20-2.8 39.9-6 60.6-9 8.8-1.3 16.7-2.7 25.5-4.1 4.1 0.1 7.5 0.2 10.8 0.3z"/>
	<path class="s1" d="m840.8 589.5c2.9-0.3 5.8-0.7 8.7-0.7 24.9-0.2 26 1 22.6 25.9-0.3 2.1-3.7 3.8-5.7 5.7-0.2 0.2-0.6 0.1-0.9 0.1-32.7-1.1-26.3 6.6-26.1-28.8 0.9-1.4 1.2-1.8 1.4-2.2z"/>
	<path class="s2" d="m302.6 675.4c-2.5-1.4-5-2.8-7.7-4.8 26.2-4.5 52.6-8.3 79.8-12.1 0.6 0.7 0.4 1.5-0.7 3.1-21.9 3.7-43 6.6-64 9.8-2.6 0.4-4.9 2.6-7.4 4z"/>
	<path class="s3" d="m197.8 439.2c0.9 3.4 1.6 7.5 2 12.2-1-3.4-1.6-7.4-2-12.2z"/>
	<path class="s3" d="m195.9 421.6c0.9 3.4 1.6 7.5 2 12.2-1-3.4-1.6-7.4-2-12.2z"/>
	<path class="s3" d="m194.1 404c0.8 2.7 1.5 6.2 1.7 10.3-0.8-2.9-1.4-6.2-1.7-10.3z"/>
	<path class="s3" d="m190.4 368.7c0.8 2.2 1.3 5 1.5 8.4-0.8-2.2-1.3-5-1.5-8.4z"/>
	<path class="s3" d="m192.5 388.3c0.7 2.1 1.2 5 1.4 8.4-0.8-2.3-1.2-5-1.4-8.4z"/>
	<path class="s3" d="m188.5 351c0.7 1.7 1.2 3.9 1.4 6.6-0.8-1.7-1.2-3.8-1.4-6.6z"/>
	<path class="s4" d="m840.4 589c0.2 0.9-0.1 1.3-0.8 1.8-1.3-0.5-2.4-1.2-4-2.2 0.1-1.2 0.9-2.1 2-3.2 1.1 1 1.7 2.1 2.8 3.6z"/>
	<path class="s3" d="m188.7 334.7c0.2 1.7-0.1 3.2-0.8 5.2-0.7-1-1-2.5-1.3-4.7 0.7-0.6 1.2-0.6 2.1-0.5z"/>
	<path fill-rule="evenodd" class="s5" d="m691.8 352.4c0-29.2 0-58.4 0-88.6 4.3 0.5 6.9 0.6 9.3 1.1 31.9 7.8 63.7 15.8 95.7 23.2 7.4 1.7 9.9 4.9 9.7 12.5-0.4 23.7 0 47.5-0.2 73-0.3 6.4-0.4 10.9-0.5 15.4-0.2 32.9-0.4 65.7-1.2 98.7-3.8 2-7 3.8-10.6 5.3-8.5 6.2-16.6 12.8-24.6 19.4-20.7 15.4-41.4 30.9-62.2 46.2-4.2 3-8.8 5.4-14 7.2-1-14.3-1.2-27.7-1.2-42.1 0.1-27.7-0.1-54.5 0-82.2 0.1-30.3-0.1-59.7-0.2-89.1zm89.9 42.2c-23-2.5-46-4.8-69-7.4-6.3-0.7-8.9 1-8.8 7.7 0.3 20.5 0.3 41 0.1 61.6-0.1 6.2 2 8.6 8.3 8.9 25.1 0.9 50.2 2 75.2 3.4 7 0.4 9.2-2 9.1-8.8-0.3-16.9 0-33.9 0-50.8 0-13.2 0-13.2-14.9-14.6zm10.1-48.9c-28.8-4.4-57.6-8.8-87.8-13.4 0 13.8 0.3 26.1-0.1 38.4-0.2 6.2 2.1 8.5 8.3 9.1 19.1 1.6 38.2 3.9 57.3 5.8 27.1 2.8 27.3 2.8 27-24.2-0.1-5.1-2-10.1-4.7-15.7zm4.7-14.6c0.1-7.5-0.3-15 0.2-22.4 0.5-6.7-1.7-9.9-8.6-11.4-24.7-5.4-49.4-11.5-74.1-17.3-2.9-0.7-6-1-9.9-1.7 0 14.4-0.4 27.4 0.3 40.3 0.1 2.6 4.1 6.6 6.8 7 26 4.4 52 8.4 78.1 11.9 2.2 0.3 4.8-3 7.2-6.4z"/>
	<path class="s6" d="m794.4 493.4c3.2-1.9 6.4-3.7 10.4-4.8 0.7 18.3 0.7 35.9 0.7 53.6-4.4 0.1-8.7 0.3-14.7 0.6-2.5 1.3-4.3 2.6-4.3 3.8-0.2 12.3-0.4 24.7 0 37 0 1.8 2.8 3.6 4.3 5.3 4.9 0.4 9.8 0.8 15.3 1.7 0.4 12.2-0.3 24 0.2 35.6 0.3 8.2-2.1 12.5-11.9 11.7-2.2 0.2-3.3 0.8-4.4 1.3-5.3 1-10.6 2-17.1 2.7-2.2 0.2-3.3 0.7-4.5 1.3-1.4 0.3-2.9 0.6-5.4 0.5-2.1 0.2-3.2 0.8-4.4 1.3-2 0.4-4.1 0.8-7.2 0.8-2.2 0.2-3.4 0.8-4.5 1.4-1.4 0.3-2.9 0.6-5.4 0.5-2.2 0.2-3.3 0.8-4.4 1.3-5.3 1-10.6 2-17 2.6-2.3 0.2-3.4 0.8-4.5 1.4-5.3 1-10.6 2-17.1 2.5-2.6-0.9-3.9-1.3-5.3-1.8-0.3-22-0.5-44-1-67.1 7.2-6.8 14.9-12.2 22-18.4 18.9-16.8 37.5-34 57.3-51.4 8.4-8 15.7-15.7 22.9-23.4z"/>
	<path class="s1" d="m690.6 516.8c-2.3 17.5-4.6 34.1-6.8 51-15.9 11.6-31 21.6-46.2 31.4-2.4-2.1-3.9-5.9-6.2-6.4-8-1.7-16.3-2.3-25.3-3.5-0.9-0.3-0.5-0.2-0.5-0.2-8.3-0.9-16.5-1.8-24.3-3.7 9.2-1.9 18-2.7 27.5-3.6 1-2.1 1.5-4 2.1-6.7-0.2-2.4-0.6-4.2-1-6.7-0.1-1.7-0.4-2.6-0.4-4.3-0.1-2.5-0.5-4.3-0.9-7-0.3-2.5-0.6-4.2-0.7-6.7-0.6-6.6-1.5-12.4-2.4-19.3-0.4-5.3-0.7-9.8-0.2-14.2 28.7-0.1 56.8-0.1 85.3-0.1z"/>
	<path class="s7" d="m458 677.5c-4.1 0-7.5-0.1-11.8-1.1-0.9-4.4-0.7-8-1.1-11.5-1-8.6 1.8-12.7 11.3-13.4 16.2-1.3 30.1 5.3 44.7 10-10.2 4-20.3 8.1-30.5 12-3.9 1.5-7.9 2.6-12.6 4z"/>
	<path class="s2" d="m501.8 661.7c-15.3-4.9-29.2-11.5-45.4-10.2-9.5 0.7-12.3 4.8-11.3 13.4 0.4 3.5 0.2 7.1 0.3 11.6-7.8 2.2-15.7 3.6-24.4 4.4-0.8-0.6-0.9-1.6-0.9-1.6 0.9-1.1 1.8-2.2 3.9-3.7 7.1-1.7 16 1.4 16.2-8.4 0.4-16.9-0.3-33.7-0.6-50.5 2.4 3.3 4.8 6.7 7.7 10.6-0.4 6.1-1.5 11.6-1.5 17.2 0 1.1 4.5 3.5 6.6 3.3 19.1-2.4 36 5.8 54.2 11.1-1 1.4-2.6 2.1-4.8 2.8z"/>
	<path class="s2" d="m794 493c-6.8 8.1-14.1 15.8-22 23.3-1-1.1-1.5-2-2.3-3.4 7.7-7.1 15.8-13.7 24.3-19.9z"/>
	<path fill-rule="evenodd" class="s8" d="m610.4 552.3c0.4 1.4 0.7 2.8 0.8 5.4 0.2 2.9 0.8 4.6 1.4 6.3 0.2 0.9 0.5 1.7 0.4 3.6 0.3 2.8 0.9 4.5 1.5 6.2-0.5 1.9-0.9 3.7-2.4 5.1-3.1-3.4-5-6.3-7.1-10-0.2-1.5-0.3-2.4 0-3.7-0.3-2.1-0.9-3.8-1.7-6.3-0.4-2.1-0.6-3.5-0.5-5.4-0.2-1.4-0.6-2.4-1.2-4-0.4-1.7-0.5-2.9-0.3-4.7-0.4-2.7-1.1-4.7-2-7.3-0.3-1.5-0.4-2.4-0.1-3.6-0.3-2.1-0.9-3.9-1.7-6.3-0.4-2.1-0.6-3.6-0.5-5.4-0.3-2.2-0.9-3.9-1.7-6.2-0.3-1.5-0.4-2.4-0.2-3.6-0.4-1.4-1.1-2.5-2.3-4-3.1-2.1-5.7-3.8-8.4-6.1-2.6-2.1-5.2-3.6-7.7-5.1 0 0 0 0.1-0.2-0.6-2.6-2.2-5.2-3.7-7.7-5.2 0 0 0 0-0.1-0.6-1.4-1.5-2.7-2.4-4.5-3.5-1.3-0.9-2.2-1.6-3.3-2.8-1.6-1.3-2.9-1.9-4.7-2.7-0.4-0.2-0.9-0.7-1.1-1.3-1.7-1.2-3.1-1.8-5-2.7-1.9-1.1-3.2-2.1-4.8-3.6-1.5-1.1-2.8-1.7-4.6-2.4-0.4-0.1-1-0.7-1.3-1.3-2.8-1.8-5.4-3.1-8.4-4.6-0.5-0.1-1.1-0.7-1.4-1.2-1.6-1.2-3-1.8-5-2.5-1.9-1.1-3.2-2-4.8-3.4-1.6-1.1-3-1.7-4.9-2.5-1.3-0.3-2-0.6-2.8-1.5-15.3-8.3-30.5-16-46.2-23.9-1.2-0.5-1.9-0.8-2.8-1.8-3.2-1.5-6.1-2.5-9.6-3.5-1.7-0.7-2.7-1.3-4.1-2.4-3.2-1.5-6.1-2.5-9.5-3.6-1.7-0.7-2.8-1.2-4.2-2.3-10.7-5-20.9-9.7-31.5-13.5-6.2-2.3-12.8-3.2-20-4.8-2.8-0.9-4.9-1.7-7.2-3-3.4-1.3-6.6-2-10.4-2.8-1.4-0.4-2.2-0.8-3.4-1.6-8-2.4-15.7-4.4-24-6.3-1.4-0.3-2.2-0.6-3.2-1.3-1.4-0.5-2.7-0.6-4.6-0.7-1.4-0.3-2.3-0.6-3.3-1.3-1.4-0.4-2.6-0.5-4.5-0.6-1.5-0.3-2.3-0.5-3.5-1.3-4.7-1.3-9.1-2-14.1-2.8-1.5-0.3-2.3-0.6-3.3-1.2-1.4-0.5-2.7-0.5-4.6-0.6-2.2-0.3-3.6-0.6-5.3-1.4-2.1-0.5-3.9-0.6-6.4-0.7-1.4-0.2-2.3-0.5-3.4-1.2-2-0.5-3.9-0.6-6.4-0.7-2.2-0.3-3.6-0.6-5.3-1.4-2.1-0.5-3.9-0.5-6.4-0.5-1.5-0.2-2.3-0.4-3.5-1.1-2.7-0.6-5.2-0.7-8.4-0.8-2.8-0.3-4.9-0.6-7.3-1.4-3.4-0.6-6.5-0.6-10.3-0.6-2.8-0.3-4.9-0.6-7.2-1.3-1.4 0.3-2.7 0.9-4 2.3 0 1.5 0 2.4-0.4 3.7 0.3 2.2 0.8 3.9 1.6 6.5 0.4 4.1 0.6 7.4 0.4 11.2 0.3 2.1 0.9 3.9 1.7 6.4 0.4 3.4 0.6 6.1 0.5 9.2 0.1 2.8 0.7 5.2 1.5 8.4 0.3 2.7 0.6 4.8 0.4 7.3 0.1 2.8 0.6 5.2 1.4 8.4 0.4 3.4 0.7 6.1 0.5 9.2 0.2 2.8 0.8 5.2 1.6 8.3 0.3 2.1 0.4 3.6 0 5.6 0.4 4.1 1.1 7.7 2 12 0.3 2.1 0.4 3.6 0 5.6 0.3 3.4 1 6.4 1.9 10.1 0.2 2.1 0.3 3.6 0 5.6 0.3 4.1 1 7.7 2 12 0.2 2.1 0.3 3.6 0 5.5 0.2 3.5 0.9 6.5 1.7 10.2 0.4 2.8 0.5 4.9 0.3 7.5 0.3 3.4 0.9 6.4 1.7 10 0.4 2.2 0.4 3.7 0.1 5.7 0.4 4.1 1.1 7.7 2 12 0.3 2.1 0.3 3.6 0 5.6 0.4 4.1 1.1 7.7 2 12 0.3 2.1 0.4 3.6 0.1 5.5 0.2 3.5 0.9 6.5 1.7 10.2 0.3 2.1 0.4 3.6 0.1 5.6-1.4 10-1.4 10 5.4 11.4 2.9-0.1 5-0.2 7.5 0.2 1.3 1.6 2.2 2.8 3.2 4-5.4 0.5-10.7 1.4-16.1 1.1-2.3-0.1-4.6-2.6-6.5-5.4-0.2-4.3-0.8-7.3-1.5-10.2-0.3-2.1-0.6-4.1-0.5-7.4-0.2-4.3-0.9-7.3-1.5-10.2-0.3-2.1-0.6-4.1-0.5-7.5-0.2-4.2-0.9-7.2-1.5-10.1-0.3-2.1-0.6-4.1-0.5-7.4-0.1-3.6-0.7-6-1.3-8.3-0.4-2.7-0.8-5.3-0.7-9.3-0.1-3.6-0.7-6-1.3-8.3-0.3-2.1-0.7-4.1-0.5-7.4-0.3-4.3-0.9-7.3-1.6-10.3-0.3-2-0.6-4-0.4-7.3-0.2-3.6-0.7-6-1.3-8.3-0.4-2.7-0.8-5.3-0.7-9.4-0.9-9.5-2.2-17.7-3.5-25.8-0.3-2.1-0.6-4.1-0.5-7.4-0.1-3.6-0.7-5.9-1.3-8.3-0.4-2.7-0.7-5.3-0.7-9.2-0.1-3.7-0.7-6-1.3-8.4-0.4-2.7-0.8-5.3-0.7-9.3-0.1-3.6-0.7-6-1.4-8.3-0.3-2.7-0.7-5.3-0.6-9.2-0.1-2.9-0.6-4.7-1.1-6.5-0.5-3.3-0.9-6.6-0.9-11.1-0.1-3-0.6-4.7-1.2-6.5-0.3-2.7-0.7-5.3-0.6-9.3-0.1-3.6-0.8-6-1.4-8.3-0.3-2.7-0.7-5.3-0.6-9.3-0.2-3.6-0.8-6-1.4-8.3-0.3-1.5-0.5-2.9-0.3-5.6-0.2-4.2-0.9-7.1-1.5-10.1-0.3-2-0.7-4.1-0.5-7.4-0.2-4.3-0.9-7.2-1.6-10.2-0.3-2.1-0.6-4.1-0.4-7.4-0.1-3.6-0.7-5.9-1.3-8.3-0.4-2.7-0.8-5.3-0.7-9.2-0.1-3.7-0.7-6-1.3-8.4-0.4-2.7-0.8-5.3-0.7-9.3-0.2-3.6-0.8-5.9-1.4-8.3-0.3-2.8-0.5-5.5-1-9.6 33.1 7.4 64.7 14.4 97.6 21.8 2.2 0.4 3.2 0.6 4.3 0.8 18.4 4.2 36.8 8.4 56.3 12.9 2.3 0.5 3.3 0.7 4.3 0.8 4.1 1 8.1 2 13.3 3.2 2.3 0.5 3.3 0.6 4.4 0.8 0.8 0.2 1.7 0.5 3.6 1 2.1 0.5 3.2 0.6 4.2 0.8 1.4 0.4 2.9 0.7 5.1 1.1 33.6 7.6 66.5 15.4 99.4 23 22.1 5.2 44.4 9.9 66.5 15.4 3.3 0.8 5.8 4.6 8.2 8.3-5.3 2.2-10.1 3.1-14.8 4.2-4 0.9-8 2-12.2 4-0.1 12.7 0.2 24.3-0.3 36-0.3 7.3 1.7 10.8 9.7 10.1 6.7-0.6 13.6 0.3 20.4-0.2 6.6-0.4 9.9 2 9.1 9.1 0.2 1.4 0.6 2.6 1.3 4.4 0.5 2.2 0.7 3.6 0.5 5.5 0.3 2.1 0.9 3.8 1.7 6.2 0.3 1.5 0.4 2.3 0.2 3.6 0.2 2.1 0.8 3.8 1.7 6.3 0.4 2.1 0.6 3.5 0.5 5.3 0.1 1.4 0.6 2.6 1.3 4.4 0.4 2.2 0.6 3.6 0.5 5.5 0.2 2.1 0.8 3.9 1.6 6.3 0.6 2.1 1 3.5 1.2 5.6 0.3 2.9 0.7 5.1 0.8 7.8 0.4 2.8 1.1 5.1 2 8 0.3 1.5 0.4 2.4 0.2 3.6 0.2 2.2 0.8 3.9 1.6 6.2 0.4 1.5 0.4 2.4 0.2 3.7 0.3 2.1 0.9 3.8 1.7 6.1 0.3 1.5 0.4 2.4 0.1 3.8 0.4 2.8 1.1 5.1 2 8 0.4 1.4 0.5 2.3 0.2 3.6 0.3 2.1 0.9 3.8 1.7 6.2 0.3 1.4 0.4 2.3 0.1 3.8 1 6.1 2.3 11.6 3.9 17.7 0.5 1.4 0.8 2.2 1.1 3 0.5 3.5 1 7 1.2 11.7 0.8 6.2 2 11.1 3.2 16zm-132.2-190.2c-0.6 5.4 1.4 7.8 7.1 7.5 7.5-0.3 15.1 0.3 22.5-0.3 2.3-0.2 6.2-3 6.3-4.8 0.6-10 0.3-20.1 0.3-30.7-12.4 0-23.7 0-36.2 0 0 9.2 0 17.9 0 28.3zm72.6 50.3c-0.1-12.8-0.1-12.8-12.8-12.8-23.8-0.1-23.8-0.1-23.7 22.3 0 14.2 0 14.2 14.2 14.2 22.3 0 22.3 0 22.3-23.7z"/>
	<path class="s9" d="m265.9 601.9c-1.8-1.5-2.7-2.7-3.3-4.6 58-4.5 115.6-8.3 173.2-12.1 53-3.4 106.1-6.7 159.1-10.4 3.5-0.2 6.8-3.4 10.2-5.2 2 3 3.9 5.9 6.4 9.3-9.5 1.4-19.5 2.3-30.2 3.5-52.1 3.4-103.4 6.4-154.7 9.6-53.3 3.3-106.6 6.7-160.7 9.9z"/>
	<path class="s7" d="m419.3 679.3c0.8 0 0.9 1 0.8 1.4-19.9 3.7-39.8 6.9-59.8 9.7-3.7 0.6-7.8-0.2-11.4-1.2-15-4.3-29.9-9-45.6-13.6 1.8-1.6 4.1-3.8 6.7-4.2 21-3.2 42.1-6.1 63.9-9.2 3.2 2.6 5.3 6.8 8.4 7.7 11.9 3.7 24.1 6.3 37 9.4z"/>
	<path class="s7" d="m438.8 616.6c1.1 16.9 1.8 33.7 1.4 50.6-0.2 9.8-9.1 6.7-15.7 8.1-1-17.3-1.5-34.7-1.3-52.1 0.2-11.6 9.7-4.5 15.6-6.6z"/>
	<path class="s9" d="m236.7 552.6c0.9 2.2 1.6 5.2 1.9 8.7-0.4 0.5-1.2 0.1-1.6-0.2-0.4-2.7-0.4-5.3-0.3-8.5z"/>
	<path class="s9" d="m238.8 570.2c0.8 2.2 1.5 5.2 1.8 8.7-0.9-2.3-1.5-5.2-1.8-8.7z"/>
	<path class="s9" d="m240.8 587.8c0.9 2.2 1.5 5.2 1.8 8.7-0.9-2.3-1.5-5.2-1.8-8.7z"/>
	<path class="s9" d="m609.1 586.5c0.1-0.2-0.3-0.3-0.3-0.2-0.1 0 0.2 0.4 0.3 0.2z"/>
	<path class="s1" d="m587.6 429.6c-0.2-1.6-0.4-3.2-0.7-6.1-0.6-2.4-1-3.5-1.4-4.6-0.2-1.6-0.4-3.2-0.7-6.2-0.7-3.1-1.2-4.9-1.7-6.6-0.1-1-0.2-1.9-0.4-4.2-0.6-3.1-1.2-4.8-1.7-6.5-0.2-1.6-0.4-3.2-0.7-6.1-0.6-2.5-1-3.6-1.4-4.7 0.3-7.4-3-10-9.6-9.5-6.7 0.4-13.6-0.5-20.4 0.2-8 0.8-10-3.1-9.9-11.1 0.2-12.7-0.4-25.5 0.4-39.4 10.1-1.5 19.1-1.9 28.1-2.4 9 2 18.9 1.7 22.5 14.8 0.7 2.4 7.2 4.2 11 4.3 20.1 0.5 40.2 0 60.3 0.3 9 0.1 18 1.1 27.7 1.9 1.5 32.3 2.3 64.5 2.2 97.6-4.8 1.5-8.7 2.4-12.5 2.4-29.4-0.4-58.8-0.9-88.3-1.4-0.3-1.5-0.7-3.1-1.1-6.1-0.7-3.1-1.2-4.9-1.7-6.6z"/>
	<path class="s10" d="m806.3 541.9c-0.8-17.4-0.8-35-0.9-53.5 0-33.7 0.2-66.5 0.4-99.4 0.1-4.5 0.2-9 0.6-14.5 1.2 4.3 2.6 9.5 2.8 14.7 0.4 10 0.1 19.9 0.2 30.8 0 37.2 0.1 73.5-0.1 109.8 0 4-1.5 7.9-3 12.1z"/>
	<path class="s9" d="m207.4 298.1c0.9 2.3 1.6 5.2 1.9 8.7-1-2.3-1.5-5.2-1.9-8.7z"/>
	<path class="s9" d="m209.4 315.8c0.9 2.2 1.6 5.1 1.9 8.6-0.9 0.2-1.3-0.2-1.8-1.1-0.3-2.4-0.3-4.6-0.1-7.5z"/>
	<path class="s9" d="m203.6 264.8c0.9 1.7 1.5 4 1.7 6.8-0.9-1.7-1.4-3.9-1.7-6.8z"/>
	<path class="s9" d="m201.6 247.2c0.8 1.7 1.4 4 1.7 6.8-0.9-1.7-1.4-3.9-1.7-6.8z"/>
	<path class="s9" d="m205.7 282.4c0.8 1.7 1.4 4 1.5 6.9-0.8-1.8-1.3-4-1.5-6.9z"/>
	<path class="s11" d="m388.6 278.6c-0.8 0.2-1.9 0.1-3.3-0.5 0.8-0.2 2-0.1 3.3 0.5z"/>
	<path class="s11" d="m302.5 259.1c-0.9 0.2-1.9 0-3.3-0.5 0.8-0.2 1.9-0.1 3.3 0.5z"/>
	<path class="s11" d="m380.8 276.7c-0.9 0.3-1.9 0.2-3.4-0.3 0.8-0.3 2-0.2 3.4 0.3z"/>
	<path class="s11" d="m363.2 272.8c-0.9 0.3-1.9 0.1-3.4-0.4 0.8-0.3 2-0.1 3.4 0.4z"/>
	<path class="s5" d="m693 654.3c1.6-0.1 2.9 0.3 4.7 1.2-1.4 0-3.1-0.3-4.7-1.2z"/>
	<path class="s5" d="m737.6 649.1c0.6-0.6 1.7-1.2 3.2-1.5-0.7 0.8-1.6 1.2-3.2 1.5z"/>
	<path class="s5" d="m790.5 639.3c0.6-0.6 1.7-1.2 3.1-1.4-0.6 0.7-1.6 1.1-3.1 1.4z"/>
	<path class="s5" d="m769 643.3c0.6-0.7 1.7-1.2 3.1-1.5-0.6 0.8-1.6 1.2-3.1 1.5z"/>
	<path class="s5" d="m759.2 645.1c0.6-0.6 1.7-1.2 3.1-1.4-0.7 0.7-1.6 1.1-3.1 1.4z"/>
	<path class="s5" d="m716.1 653.1c0.6-0.7 1.7-1.3 3.1-1.5-0.6 0.7-1.6 1.1-3.1 1.5z"/>
	<path class="s5" d="m747.5 647.3c0.5-0.7 1.7-1.3 3.1-1.5-0.7 0.7-1.6 1.2-3.1 1.5z"/>
	<path class="s5" d="m790.6 588.1c-1.3-0.9-4.1-2.7-4.1-4.5-0.4-12.3-0.2-24.7 0-37 0-1.2 1.8-2.5 3.5-3.9 0.6 14.7 0.5 29.6 0.6 45.4z"/>
	<path class="s9" d="m224.9 450.9c1.6 7.3 2.9 15.5 3.8 24.2-1.7-4.8-3.1-10.1-4.6-16.2 0.1-3 0.3-5.1 0.8-8z"/>
	<path class="s9" d="m211.3 331.3c0.8 1.7 1.4 4.1 1.7 6.9-0.9-1.7-1.4-4-1.7-6.9z"/>
	<path class="s9" d="m223.2 435.1c0.8 1.7 1.4 4 1.6 6.8-0.9-1.7-1.4-4-1.6-6.8z"/>
	<path class="s9" d="m221.1 417.5c0.9 1.7 1.5 4 1.7 6.8-0.9-1.7-1.4-4-1.7-6.8z"/>
	<path class="s9" d="m219.1 399.8c0.9 1.7 1.5 4.1 1.7 6.9-0.9-1.7-1.4-4-1.7-6.9z"/>
	<path class="s9" d="m213.3 349c0.8 1.6 1.5 4 1.7 6.8-0.9-1.7-1.4-4-1.7-6.8z"/>
	<path class="s9" d="m215.3 366.5c0.8 1.2 1.3 2.9 1.5 5.1-0.8-1.2-1.3-2.9-1.5-5.1z"/>
	<path class="s9" d="m217.3 384.1c0.8 1.2 1.3 3 1.5 5.1-0.8-1.2-1.3-2.9-1.5-5.1z"/>
	<path class="s9" d="m230.9 501.7c0.9 2.2 1.5 5.2 1.8 8.7-0.9-2.3-1.4-5.2-1.8-8.7z"/>
	<path class="s9" d="m234.9 536.8c0.9 1.7 1.5 4.1 1.7 6.9-0.9-1.7-1.4-4-1.7-6.9z"/>
	<path class="s9" d="m232.9 519.2c0.9 1.7 1.5 4.1 1.7 6.9-0.9-1.7-1.4-4-1.7-6.9z"/>
	<path class="s9" d="m229.1 485.9c0.9 1.7 1.4 4.1 1.6 6.9-0.8-1.7-1.3-4-1.6-6.9z"/>
	<path class="s1" d="m589.3 435c29.6-0.2 59 0.3 88.4 0.7 3.8 0 7.7-0.9 12.3-1.4 1.2 29.4 1.7 58.9 2 89.3-28.2 1-56.2 1-85.1 1-1.2-0.9-1.5-1.8-1.9-4.2-1.3-7.4-2.6-13.3-3.9-19.2-0.1-1-0.2-1.9-0.3-4.2-0.6-3.1-1.1-4.9-1.6-6.6-0.1-1-0.2-1.9-0.4-4.3-0.7-3.8-1.3-6.2-2-8.6-0.1-0.9-0.1-1.9-0.3-4.2-0.6-3.1-1.1-4.8-1.6-6.6-0.1-0.9-0.2-1.9-0.4-4.2-0.5-3.1-1.1-4.8-1.6-6.6-0.1-0.9-0.2-1.9-0.3-4.2-0.7-3.8-1.4-6.2-2-8.6-0.5-2.4-0.9-4.9-1.3-8.1z"/>
	<path class="s1" d="m782.6 394.7c14 1.3 14 1.3 14 14.5 0 16.9-0.3 33.9 0 50.8 0.1 6.8-2.1 9.2-9.1 8.8-25-1.4-50.1-2.5-75.2-3.4-6.3-0.3-8.4-2.7-8.3-8.9 0.2-20.6 0.2-41.1-0.1-61.6-0.1-6.7 2.5-8.4 8.8-7.7 23 2.6 46 4.9 69.9 7.5z"/>
	<path class="s1" d="m792.6 346c1.9 5.3 3.8 10.3 3.9 15.4 0.3 27 0.1 27-27 24.2-19.1-1.9-38.2-4.2-57.3-5.8-6.2-0.6-8.5-2.9-8.3-9.1 0.4-12.3 0.1-24.6 0.1-38.4 30.2 4.6 59 9 88.6 13.7z"/>
	<path class="s1" d="m796.5 332c-2.4 2.5-5 5.8-7.2 5.5-26.1-3.5-52.1-7.5-78.1-11.9-2.7-0.4-6.7-4.4-6.8-7-0.7-12.9-0.3-25.9-0.3-40.3 3.9 0.7 7 1 9.9 1.7 24.7 5.8 49.4 11.9 74.1 17.3 6.9 1.5 9.1 4.7 8.6 11.4-0.5 7.4-0.1 14.9-0.2 23.3z"/>
	<path class="s9" d="m610.6 551.6c-1.4-4.2-2.6-9.1-3.4-14.5 1.4 4.2 2.5 9 3.4 14.5z"/>
	<path class="s9" d="m614.7 573.2c-0.8-1.1-1.4-2.8-1.7-5 0.9 1.2 1.4 2.8 1.7 5z"/>
	<path class="s9" d="m612.8 563.4c-0.8-1.1-1.4-2.8-1.6-5 0.8 1.2 1.3 2.8 1.6 5z"/>
	<path class="s1" d="m593.1 515.6c0.2 0.9 0.4 1.8 0.7 4.2 0.4 2.9 0.5 4.5 0.1 6.5-5.8 2.3-11 4.6-16.5 5.7-4.2 0.9-8.9 0.2-13.4 0.2-10.3 0-20.6 0.3-31 0.1-15.8-0.4-31.7-1.4-47.5-1.6-18.9-0.3-37.8-0.1-56.7-0.1-10.3 0.1-20.6 0.3-30.9 0.5-16.8 0.3-33.5 0.8-50.3 0.9-18.6 0.2-37.3 0.4-55.9 0.2-15.9-0.3-31.7-1.1-47.8-2.4-0.9-3-1.6-5.4-2.3-7.7-0.1-2.2-0.2-4.4-0.3-8.2-0.6-4.5-1.1-7.6-1.7-10.6 0-1.5-0.1-3.1-0.2-6.2-0.6-5.1-1.1-8.8-1.7-12.4-0.1-1.5-0.2-3.1-0.2-6.1-0.1-4-0.1-6.6 0.2-9.9 5.9-1.3 11.5-2.4 17.1-2.5 49.1-0.1 98.3-0.1 147.4-0.1 33.2 0 66.4 0 99.6-0.1 4.5 0 10.4 1.5 10.7-6.5 0.9-0.1 1.2-0.2 1.5-0.3 1.4 0.9 2.8 1.8 5.1 3.5 2.3 1.3 3.6 1.9 5 2.6 0 0 0.8 0.6 1.5 1.3 3.4 2.1 6.1 3.5 8.7 4.8 0 0 0.7 0.6 1.4 1.3 2.1 1.3 3.4 1.9 4.7 2.5 1.4 1 2.8 2 5.1 3.8 2.3 1.5 3.7 2.2 5.1 2.9 0 0 0.6 0.6 1.3 1.3 2.1 1.4 3.5 2.1 4.9 2.8 0.9 0.8 1.8 1.5 3.5 3.1 2 1.8 3.4 2.8 4.7 3.7 0 0 0-0.1 0.3 0.6 2.9 2.3 5.5 3.9 8.1 5.6 0 0 0 0 0.3 0.6 2.9 2.3 5.5 3.9 8.1 5.5 2.8 1.8 5.5 3.5 8.9 6.3 1.2 2.1 1.8 3.1 2.4 4.2z"/>
	<path class="s1" d="m244.2 526.6c15.8 0.5 31.7 1.3 47.6 1.6 18.7 0.2 37.4 0 56.1-0.1 16.8-0.2 33.5-0.6 50.3-0.9 10.3-0.2 20.6-0.4 30.9-0.4 18.9-0.1 37.9-0.3 56.8 0 15.8 0.2 31.5 1.1 47.3 1.5 10.3 0.2 20.6-0.1 30.9-0.1 4.5 0 9.1 0.6 13.4-0.2 5.6-1 11-3.1 17.4-5.1 1-0.4 1.8-0.3 1.8-0.3 0.2 1.4 0.4 2.9 0.6 5.6 0.6 2.9 1.1 4.5 1.5 6.1 0.1 0.8 0.2 1.7 0.3 3.8 0.7 3.3 1.3 5.3 1.9 7.3 0.1 1.2 0.2 2.4 0.3 4.5 0.4 1.9 0.8 3 1.2 4 0.2 1.5 0.4 2.9 0.6 5.7 0.6 2.8 1 4.4 1.5 6 0.1 0.9 0.2 1.8 0.4 3.3-3.3 2.5-6.6 5.7-10.1 5.9-53 3.7-106.1 7-159.1 10.4-57.6 3.8-115.2 7.6-173.5 11.7-2.9 0.3-5 0.4-8.4-0.1-2.3-4.1-3.4-7.7-4.5-11.4-0.1-1.4-0.2-2.9-0.2-5.7-0.6-4.3-1.1-7.1-1.7-10 0-1.4-0.1-2.9-0.2-5.8-0.6-4.9-1.2-8.3-1.8-11.8-0.1-1.4-0.1-2.9-0.2-5.8-0.6-4.9-1.2-8.3-1.8-11.8-0.1-1.4-0.1-2.9-0.1-5.6 0.3-1.6 0.5-1.9 0.8-2.3z"/>
	<path class="s1" d="m518 463c-0.5 7.9-6.3 6.4-10.9 6.4-33.8 0.1-67.6 0-101.4 0-50.2 0-100.4 0-150.5 0.1-5.8 0-11.5 1.1-17.9 2.1-0.7 0.5-1.5-0.1-1.5-0.1 0-1.5-0.1-3-0.1-6-0.7-5.1-1.3-8.6-1.9-12.2 0-1.5-0.1-3-0.2-6-0.4-3.7-0.9-6-1.3-8.3-0.3-2.7-0.6-5.5-0.8-9.8-0.4-3.8-0.8-6.1-1.2-8.4-0.2-2.1-0.5-4.2-0.6-7.8-0.4-3.8-0.9-6.1-1.3-8.4-0.3-2.8-0.5-5.5-0.8-9.7-0.4-3.2-0.9-4.8-1.4-6.5-0.2-3.4-0.4-6.8-0.6-11.7-0.5-3.2-0.9-4.8-1.4-6.5 0-0.9 0-1.8 0.7-3.6 1.7-1.2 2.7-1.5 3.6-1.8 2 0.3 4.1 0.7 7.5 1.3 4.3 0.4 7.2 0.6 10.1 0.7 2 0.4 4.1 0.7 7.5 1.4 3.6 0.5 5.9 0.8 8.1 1 0.9 0.2 1.7 0.4 3.7 0.9 2.8 0.5 4.5 0.6 6.2 0.7 1.4 0.3 2.8 0.6 5.5 1.3 2.9 0.5 4.5 0.7 6.2 0.9 0.8 0.2 1.7 0.4 3.6 1.1 2.9 0.5 4.5 0.6 6.2 0.8 1.4 0.3 2.8 0.7 5.4 1.4 2.2 0.5 3.3 0.5 4.4 0.6 0.8 0.3 1.6 0.5 3.7 1.2 5.4 1.4 9.6 2.2 13.9 3.1 0.8 0.3 1.6 0.5 3.5 1.2 2.1 0.5 3.2 0.6 4.3 0.7 0.8 0.2 1.7 0.5 3.5 1.2 2.2 0.5 3.3 0.6 4.4 0.8 0.8 0.3 1.6 0.5 3.6 1.3 8.7 2.6 16.2 4.6 23.8 6.7 0.8 0.3 1.6 0.6 3.5 1.5 4.1 1.4 7.1 2.2 10.1 3 2.1 0.8 4.2 1.6 7.5 3 17.9 6.8 34.6 12.9 51.3 19 1.1 0.6 2.2 1.2 4.3 2.4 3.8 1.7 6.6 2.8 9.4 3.8 1.1 0.6 2.1 1.2 4.3 2.4 3.8 1.6 6.6 2.7 9.4 3.7 0.6 0.4 1.3 0.8 2.7 2 15.9 8.8 31 16.7 46.1 24.7 0.7 0.3 1.4 0.5 2.9 1.4 1.5 1.4 2.2 2.2 2.9 3z"/>
	<path class="s1" d="m478.2 361.3c0-9.6 0-18.3 0-27.5 12.5 0 23.8 0 36.2 0 0 10.6 0.3 20.7-0.3 30.7-0.1 1.8-4 4.6-6.3 4.8-7.4 0.6-15 0-22.5 0.3-5.7 0.3-7.7-2.1-7.1-8.3z"/>
	<path class="s1" d="m550.8 413.3c0 22.8 0 22.8-22.3 22.8-14.2 0-14.2 0-14.2-14.2-0.1-22.4-0.1-22.4 23.7-22.3 12.7 0 12.7 0 12.8 13.7z"/>
	<path class="s9" d="m512.1 454.8q-22.4-10.6-45.4-23.1 22.4 10.6 45.4 23.1z"/>
	<path class="s9" d="m435.7 417.3c-16.4-5.4-33.1-11.4-50.3-17.8 6 1.1 12.6 2 18.8 4.3 10.6 3.8 20.8 8.5 31.5 13.5z"/>
	<path class="s9" d="m363.2 391.6c-7.2-1.5-14.7-3.4-22.8-5.9 7.1 1.5 14.8 3.5 22.8 5.9z"/>
	<path class="s9" d="m601 503.9c1.6 4.8 2.8 10.2 3.8 16.3-1.5-4.7-2.8-10.2-3.8-16.3z"/>
	<path class="s9" d="m249 586c1.5 3.1 2.6 6.7 4.1 10.9-5.5-0.9-5.5-0.9-4.1-10.9z"/>
	<path class="s9" d="m320.1 380.1c-3.9-0.3-8.1-1.1-12.9-2.4 3.8 0.4 8.2 1.1 12.9 2.4z"/>
	<path class="s9" d="m233.4 450.9c1 2.9 1.6 6.3 2 10.5-0.9-2.8-1.6-6.4-2-10.5z"/>
	<path class="s9" d="m243.1 535.1c1 2.9 1.6 6.3 2 10.5-0.9-2.8-1.6-6.4-2-10.5z"/>
	<path class="s9" d="m237.3 484.2c1 2.9 1.6 6.3 1.9 10.5-0.9-2.8-1.6-6.4-1.9-10.5z"/>
	<path class="s9" d="m245.1 552.7c1 2.9 1.6 6.3 2 10.5-0.9-2.8-1.6-6.4-2-10.5z"/>
	<path class="s9" d="m243.9 525.9c0 1.1-0.2 1.4-0.7 2.3q-1.5-3.6-1.9-8.8c1 1.6 1.7 3.8 2.6 6.5z"/>
	<path class="s9" d="m239.3 501.7c0.9 2.4 1.4 5.2 1.7 8.8-0.8-2.3-1.5-5.3-1.7-8.8z"/>
	<path class="s9" d="m247.2 570.2c0.9 2.4 1.4 5.2 1.7 8.8-0.8-2.3-1.5-5.3-1.7-8.8z"/>
	<path class="s9" d="m235.4 468.5c0.4-0.6 1.2 0 1.6 0.3 0.4 2.7 0.4 5.2 0.3 8.4-0.9-2.3-1.6-5.3-1.9-8.7z"/>
	<path class="s9" d="m245.7 366.3c-2.5 0.3-5.4 0.2-8.9-0.3 2.4-0.3 5.5-0.3 8.9 0.3z"/>
	<path class="s9" d="m377 396c-2.8-0.3-5.8-1.1-9.2-2.3 2.6 0.3 5.8 1 9.2 2.3z"/>
	<path class="s9" d="m591.2 450.9c0.9 1.7 1.5 3.9 1.9 6.8-0.8-1.7-1.5-4-1.9-6.8z"/>
	<path class="s9" d="m231.8 437c0.9 1.8 1.4 4 1.6 6.9-0.8-1.7-1.4-4.1-1.6-6.9z"/>
	<path class="s9" d="m463.1 429.1c-2.5-0.4-5.3-1.4-8.5-2.9 2.4 0.4 5.3 1.4 8.5 2.9z"/>
	<path class="s9" d="m449.4 423.2c-2.5-0.4-5.3-1.5-8.5-3 2.4 0.5 5.3 1.5 8.5 3z"/>
	<path class="s9" d="m229.9 419.4c0.8 1.7 1.2 4 1.4 6.9-0.8-1.7-1.3-4.1-1.4-6.9z"/>
	<path class="s9" d="m539.4 470.5c-2.3-0.7-4.8-2-7.7-3.9 2.3 0.8 4.9 2.1 7.7 3.9z"/>
	<path class="s9" d="m228 403.7c0.8 1.8 1.3 4 1.5 6.9-0.8-1.7-1.4-4.1-1.5-6.9z"/>
	<path class="s9" d="m597 482.3c1 1.7 1.6 3.8 2 6.7-0.9-1.6-1.6-3.9-2-6.7z"/>
	<path class="s9" d="m261.4 368.5c-1.9 0.3-4.2 0.1-7-0.5 1.8-0.2 4.3-0.1 7 0.5z"/>
	<path class="s9" d="m584.4 502.3c-2.3-0.8-4.8-2.3-7.5-4.4 2.3 0.8 4.9 2.3 7.5 4.4z"/>
	<path class="s9" d="m576.5 496.6c-2.3-0.9-4.8-2.4-7.5-4.6 2.3 0.9 4.9 2.4 7.5 4.6z"/>
	<path class="s9" d="m583.6 409.7c0.8 1.2 1.3 2.8 1.6 5-0.8-1.2-1.4-2.9-1.6-5z"/>
	<path class="s9" d="m597 522.2c-0.3 0.4-1.1 0.3-1.5 0.2-0.3-1.5-0.3-3-0.1-5.1 0.7 1 1.3 2.7 1.6 4.9z"/>
	<path class="s9" d="m587.6 431.2c0.8 1.2 1.3 2.8 1.6 5-0.8-1.1-1.4-2.9-1.6-5z"/>
	<path class="s9" d="m223.8 370.4c0.9 1.2 1.3 2.8 1.6 5.1-0.8-1.2-1.3-2.9-1.6-5.1z"/>
	<path class="s9" d="m581.7 399.9c0.8 1.2 1.3 2.8 1.6 5-0.7-1.2-1.3-2.9-1.6-5z"/>
	<path class="s9" d="m271.3 370.1c-1.4 0.4-3.1 0.3-5.2-0.2 1.3-0.3 3.1-0.3 5.2 0.2z"/>
	<path class="s9" d="m225.8 388.1c0.9 1.1 1.4 2.7 1.7 5-0.8-1.1-1.4-2.9-1.7-5z"/>
	<path class="s9" d="m292.8 374.1c-1.4 0.3-3 0.2-5.2-0.3 1.3-0.3 3.1-0.2 5.2 0.3z"/>
	<path class="s9" d="m283 372.2c-1.4 0.3-3 0.2-5.2-0.4 1.3-0.2 3.2-0.1 5.2 0.4z"/>
	<path class="s9" d="m599.2 533.9c-0.8-1.2-1.3-2.8-1.6-5 0.7 1.1 1.3 2.9 1.6 5z"/>
	<path class="s9" d="m595.2 472.4c0.8 1.1 1.3 2.7 1.7 4.9-0.8-1.1-1.4-2.8-1.7-4.9z"/>
	<path class="s9" d="m593.4 462.5c0.8 1.2 1.3 2.8 1.6 5-0.8-1.1-1.4-2.8-1.6-5z"/>
	<path class="s9" d="m605 565.2c-0.9-1.2-1.3-2.8-1.6-5 0.7 1.2 1.3 2.9 1.6 5z"/>
	<path class="s9" d="m601.3 544.8c-0.9-1.4-1.5-3.4-1.9-6.1 0.8 1.4 1.5 3.4 1.9 6.1z"/>
	<path class="s9" d="m599.2 493.9c0.8 1.2 1.3 2.7 1.6 4.9-0.7-1.1-1.3-2.8-1.6-4.9z"/>
	<path class="s9" d="m602.8 553.5c-0.7-0.6-1.1-1.7-1.2-3.1 0.6 0.7 1 1.7 1.2 3.1z"/>
	<path class="s9" d="m568.7 490.8q-1.7-0.4-3.8-2.6 1.7 0.4 3.8 2.6z"/>
	<path class="s9" d="m228.2 364.4c-0.6 0.7-1.6 1-3.2 1.5 0.5-0.6 1.8-1.2 3.2-1.5z"/>
	<path class="s9" d="m595.1 512.4c-0.8-0.6-1.3-1.6-1.8-3.1 0.7 0.6 1.4 1.7 1.8 3.1z"/>
	<path class="s9" d="m302.7 376.1c-0.9 0.3-2 0.3-3.5-0.2 0.8-0.3 2.1-0.3 3.5 0.2z"/>
	<path class="s9" d="m328.1 382c-0.9 0.4-2 0.3-3.5-0.2 0.9-0.3 2.1-0.2 3.5 0.2z"/>
	<path class="s9" d="m336 384c-0.9 0.3-2 0.2-3.5-0.3 0.8-0.3 2.1-0.2 3.5 0.3z"/>
	<path class="s9" d="m560.9 484.5c-1.1-0.2-2.4-0.9-4.1-2.1 1.2 0.2 2.5 0.8 4.1 2.1z"/>
	<path class="s9" d="m555.1 480.5c-1.2-0.1-2.5-0.8-4.2-2 1.1 0.2 2.5 0.8 4.2 2z"/>
	<path class="s9" d="m579.9 390c0.7 0.7 1.1 1.7 1.3 3.2-0.7-0.6-1.1-1.8-1.3-3.2z"/>
	<path class="s9" d="m545.3 474.2q-1.6-0.1-3.9-1.7 1.6 0.1 3.9 1.7z"/>
	<path class="s9" d="m529.6 464.7q-1.6-0.1-4.1-1.8 1.7 0.1 4.1 1.8z"/>
	<path class="s9" d="m585.8 421.3c0.6 0.7 1 1.7 1.2 3.2-0.6-0.6-1.1-1.8-1.2-3.2z"/>
	<path class="s1" d="m518.5 459.7c-1.2-0.7-1.9-1.5-2.9-2.7 1.2 0.1 2.6 0.7 4.2 1.8-0.1 0.6-0.4 0.7-1.3 0.9z"/>
</svg>